# xmcd
#
# Track frame offsets:
# 150
# 14113
# 33288
# 51088
# 66413
# 80788
# 96763
# 114125
# 136850
# 153538
# 168688
# 183150
# 195538
#
# Disc length: 2781 seconds
#
#
# Revision: 0
# Processed by: cddbd v1.5.1PL0 Copyright (c) Steve Scherf et al.
# Submitted via: FreeRIP 2.941 
#
DISCID=ae0adb0d
DTITLE=Various Artist - 三把靚聲 民歌．小調 新曲+精選 Disc 1
DYEAR=2005
DGENRE=Country
TTITLE0=一首老歌(區瑞強 關菊英)
TTITLE1=本草人生(區瑞強 張德蘭)
TTITLE2=珍惜情感(區瑞強 關菊英)
TTITLE3=再攀高峰(區瑞強)
TTITLE4=勁草嬌花(區瑞強 張德蘭)
TTITLE5=月光光(張德蘭)
TTITLE6=相思淚(張德蘭)
TTITLE7=漁舟唱晚(區瑞強)
TTITLE8=詠梅(區瑞強)
TTITLE9=採紅菱(區瑞強 張德蘭)
TTITLE10=百花亭之戀(張德蘭)
TTITLE11=媽媽好(張德蘭)
TTITLE12=茉莉花(純音樂)
EXTD=
EXTT0=
EXTT1=
EXTT2=
EXTT3=
EXTT4=
EXTT5=
EXTT6=
EXTT7=
EXTT8=
EXTT9=
EXTT10=
EXTT11=
EXTT12=
PLAYORDER=
